<svg version="1.2" xmlns="http://www.w3.org/2000/svg" viewBox="0 0 637 525" width="637" height="525">
	<defs>
		<linearGradient id="g1" x2="1" gradientUnits="userSpaceOnUse" gradientTransform="matrix(626.687,0,0,511.939,5,262.433)">
			<stop offset="0" stop-color="#26c5da"/>
			<stop offset=".009" stop-color="#26c5da"/>
			<stop offset="1" stop-color="#2196f3"/>
		</linearGradient>
	</defs>
	<style>
		.s0 { fill: url(#g1) } 
		.s1 { fill: #23a9e8 } 
	</style>
	<path id="Relleno de degradado 1" fill-rule="evenodd" class="s0" d="m321 6.67c5.23 0.26 12.65 1.08 16.5 1.81 3.85 0.74 10.83 2.75 15.5 4.47 4.67 1.72 11.2 4.64 14.5 6.49 3.3 1.85 8.7 5.35 12 7.77 3.3 2.42 8.44 6.85 11.43 9.85 2.98 2.99 7.63 8.37 10.33 11.94 2.69 3.57 7.13 11 9.84 16.5 2.72 5.5 6.13 14.5 7.58 20 2.31 8.77 2.63 11.91 2.62 25.5-0.02 13.52-0.36 16.78-2.67 25.5-1.48 5.61-5.01 14.83-8.05 21-3.32 6.74-8.06 14.27-12.25 19.47-3.75 4.65-9.98 11.1-13.83 14.32-3.85 3.22-10.83 8.06-15.5 10.76-4.67 2.7-13.23 6.46-19 8.36-5.77 1.9-13.99 3.93-18.25 4.52-4.26 0.59-11.01 1.07-15 1.07-3.99-0.01-11.3-0.67-16.25-1.47-4.95-0.81-12.15-2.54-16-3.85-3.85-1.31-9.48-3.55-12.5-4.97-3.02-1.42-9.1-4.94-13.5-7.81-4.4-2.87-11.39-8.64-15.54-12.81-4.14-4.18-10.05-11.41-13.13-16.09-3.08-4.68-7.06-11.87-8.85-16-1.78-4.12-4.28-11.55-5.54-16.5-1.26-4.95-2.6-13.05-2.98-18-0.4-5.27-0.21-12.94 0.46-18.5 0.63-5.22 2.09-12.87 3.25-17 1.15-4.12 3.64-10.87 5.54-15 1.89-4.12 5.82-11.1 8.72-15.5 2.9-4.4 8.15-10.88 11.67-14.4 3.52-3.51 8.88-8.3 11.9-10.63 3.02-2.34 8.88-6.07 13-8.3 4.12-2.23 10.65-5.18 14.5-6.55 3.85-1.37 10.6-3.19 15-4.03 4.4-0.85 9.58-1.74 11.5-1.97 1.92-0.23 7.77-0.21 13 0.05zm-16 58.95c-3.02 0.82-7.75 2.7-10.5 4.18-2.75 1.48-7.52 5.17-10.6 8.2-3.07 3.02-6.74 7.75-8.13 10.5-1.4 2.75-3.28 7.47-4.17 10.5-0.89 3.03-1.62 8.65-1.62 12.5-0.01 4.4 0.78 9.42 2.1 13.5 1.16 3.57 3.06 8.07 4.22 10 1.17 1.93 4.39 5.9 7.16 8.84 2.77 2.93 7.29 6.6 10.04 8.15 2.75 1.55 7.48 3.54 10.5 4.43 3.02 0.88 8.99 1.6 13.25 1.59 5.2-0.01 9.81-0.7 14-2.11 3.44-1.15 8.05-3.15 10.25-4.43 2.2-1.28 6.51-4.95 9.57-8.15 3.06-3.2 6.74-8.3 8.17-11.32 1.44-3.03 3.08-7.53 3.66-10 0.58-2.47 1.06-7.43 1.06-11 0.01-3.57-0.58-8.75-1.3-11.5-0.72-2.75-2.86-7.88-4.74-11.4-1.9-3.55-5.68-8.45-8.49-11-2.78-2.53-7.28-5.81-10-7.29-2.71-1.48-7.63-3.39-10.93-4.25-3.3-0.86-8.7-1.54-12-1.5-3.3 0.04-8.48 0.74-11.5 1.56zm10.92 35.38c1.7 0 4.43 0.68 6.08 1.5 1.65 0.82 3.45 2.4 4 3.5 0.55 1.1 1 3.57 1 5.5 0 2.27-0.88 4.56-2.5 6.5-2.1 2.52-3.22 3-7 3-3.67 0-5.06-0.56-7.5-3-2.4-2.4-2.98-3.82-2.92-7.08 0.05-3.06 0.78-4.8 2.92-7 1.93-1.98 3.84-2.92 5.92-2.92zm-268.67 274.52c4.26 0.26 10.11 1.36 13 2.44 2.89 1.08 7.21 3.67 9.6 5.75 2.39 2.09 5.42 6.04 6.72 8.79 1.3 2.75 2.72 6.92 3.93 13.54l-18-0.01-2.25-5.01c-1.72-3.84-3.19-5.49-6.25-7.02-2.77-1.38-6-2-10.5-2-4.13 0-7.84 0.64-10.16 1.75-2.01 0.96-4.71 2.99-6 4.5-1.79 2.11-2.35 3.98-2.37 8-0.03 3.75 0.54 6.03 2 8 1.11 1.51 3.38 3.42 5.03 4.25 1.65 0.83 8.85 2.85 16 4.5 7.15 1.65 14.91 3.89 17.25 4.99 2.34 1.09 5.83 3.26 7.75 4.83 1.92 1.56 4.6 5.05 5.95 7.76 2.02 4.06 2.45 6.41 2.45 13.42 0 6.97-0.44 9.4-2.44 13.5-1.34 2.75-4.24 6.72-6.45 8.83-2.2 2.1-6.37 4.91-9.26 6.25-2.89 1.33-8.74 2.92-13 3.54-5.58 0.81-9.71 0.83-14.75 0.06-3.85-0.59-9.14-1.99-11.75-3.12-2.61-1.13-7.03-4.2-9.81-6.81-3.43-3.22-5.68-6.44-7-10-1.07-2.89-1.94-6.37-1.94-7.75 0-2.48 0.07-2.5 18-2.5l0.5 2.75c0.27 1.51 1.96 4.15 3.75 5.87 1.79 1.71 4.83 3.63 6.75 4.26 1.92 0.64 5.98 1.14 9 1.13 3.02-0.01 7.19-0.47 9.25-1.02 2.06-0.54 5.1-2.11 6.75-3.49 1.68-1.4 3.43-4.16 3.98-6.25 0.64-2.45 0.64-5.05 0-7.5-0.55-2.09-2.3-4.85-3.98-6.25-1.65-1.37-4.69-2.9-6.75-3.39-2.06-0.49-8.7-2.06-14.75-3.51-6.05-1.44-13.02-3.62-15.5-4.85-2.48-1.22-6.05-3.81-7.94-5.74-1.88-1.93-4.33-5.53-5.42-8.01-1.44-3.24-2-6.74-2.03-12.5-0.02-5.92 0.49-9.17 1.98-12.5 1.11-2.48 3.9-6.41 6.21-8.75 2.31-2.34 6.11-5.21 8.45-6.38 2.34-1.17 6.95-2.74 10.25-3.48 3.63-0.82 9.06-1.16 13.75-0.87zm401.75-0.52h17v109h-17zm-91.74 0.74l25.12 0.49c22.99 0.45 25.63 0.68 31.12 2.76 4.17 1.57 7.55 3.83 11.06 7.39 3.42 3.46 5.81 7.07 7.35 11.12 1.94 5.11 2.22 7.41 1.88 15.5-0.28 6.68-1 10.83-2.42 14-1.11 2.48-3.56 6.24-5.44 8.38-1.89 2.13-5.46 5.04-7.93 6.46-2.47 1.42-6.97 3.16-10 3.86-3.03 0.7-11.69 1.28-33 1.3v37h-18zm17.74 54.26c24.29 0 27.74-0.35 30.67-1.75 2.02-0.97 4.83-3.29 6.25-5.17 2.29-3.04 2.58-4.36 2.58-11.68 0-6.75-0.38-8.77-2.06-11.08-1.13-1.55-4.06-3.84-6.5-5.08-3.95-2.01-5.9-2.26-17.69-2.25l-13.25 0.01zm-241-20.48c3.57 0.23 8.75 1.13 11.5 2 2.75 0.86 7.25 3.25 10 5.3 2.75 2.05 6.49 5.97 8.31 8.7 1.83 2.74 4.02 7.45 4.88 10.48 1.06 3.73 1.43 8.22 1.16 14-0.32 6.95-0.96 9.68-3.52 15-2.01 4.18-4.85 8.03-7.98 10.79-2.67 2.36-6.76 5.17-9.1 6.25-2.34 1.08-7.29 2.46-11 3.09-5.01 0.83-8.43 0.83-13.25 0-3.58-0.62-8.75-2.22-11.5-3.56-2.75-1.34-7.29-4.82-10.08-7.75-3.27-3.42-5.91-7.47-7.41-11.32-1.82-4.7-2.33-7.96-2.33-15 0-7.04 0.51-10.31 2.33-15 1.5-3.86 4.14-7.9 7.41-11.32 2.79-2.93 7.33-6.42 10.08-7.76 2.75-1.33 7.02-2.86 9.5-3.38 2.47-0.52 7.42-0.75 11-0.52zm95.5-0.01c3.38 0.29 8.29 1.59 11.25 3 3.36 1.59 6.15 3.84 7.75 6.24 1.37 2.06 3.18 6 4.01 8.75 1.19 3.91 1.51 10.59 1.49 56.5h-17l-0.01-21.75c0-12.57-0.46-23.44-1.09-25.75-0.6-2.2-2.06-5.07-3.25-6.38-1.18-1.31-3.61-3-5.4-3.75-1.79-0.76-4.71-1.36-6.5-1.35-1.79 0.01-5.16 0.91-7.5 2-2.64 1.23-5.3 3.56-9.75 10.32l-0.5 46.66h-17v-72h16l0.75 4.02c0.41 2.21 1.09 4.01 1.5 4 0.41-0.01 0.97-0.7 1.25-1.52 0.27-0.83 2.39-2.74 4.71-4.25 2.31-1.52 6.25-3.31 8.75-3.99 2.54-0.7 7.18-1.03 10.54-0.75zm77.5 0.1c4.24 0.29 9.45 1.38 12 2.5 2.47 1.1 6 3.43 7.84 5.19 1.83 1.76 4.31 5 5.5 7.2 2.04 3.79 2.17 5.46 2.66 59.5l-14.5 0.03-1.55-10.53-3.23 3.66c-1.77 2.01-5.47 4.68-8.22 5.93-3.79 1.71-6.94 2.28-13.03 2.33-6.74 0.07-8.82-0.33-13-2.48-2.8-1.45-6.2-4.28-7.78-6.5-2.14-2.99-2.96-5.52-3.39-10.44-0.33-3.71-0.1-8.01 0.53-10 0.61-1.93 2.8-5.21 4.89-7.3 2.08-2.08 6.14-4.67 9.03-5.75 2.95-1.1 10.18-2.39 16.5-2.94 6.19-0.55 12.49-1 14-1 2.51-0.01 2.75-0.34 2.74-3.76 0-2.07-0.9-5.22-2-7-1.3-2.13-3.29-3.64-5.74-4.38-2.06-0.62-6.45-0.95-9.75-0.73-4.07 0.27-7.05 1.12-9.25 2.63-1.97 1.35-3.57 3.5-4.87 8.73l-7.19 0.25c-6.87 0.24-7.19 0.15-7.18-2 0.01-1.24 0.58-3.99 1.25-6.12 0.68-2.12 2.59-5.43 4.24-7.35 1.65-1.92 5.25-4.57 8-5.89 2.75-1.32 7.02-2.82 9.5-3.34 2.47-0.52 7.87-0.72 12-0.44zm213.5-0.04c4.98 0.32 8.73 1.28 13 3.34 3.52 1.7 7.13 4.38 8.75 6.49 1.51 1.98 3.5 5.51 4.42 7.85 1.37 3.49 1.73 8.9 2.33 56.75h-16l-0.02-3.75c-0.01-2.07-0.34-4.32-0.75-5.01-0.52-0.88-1.39-0.37-2.98 1.75-1.24 1.65-4.84 4.21-8 5.68-4.41 2.04-7.39 2.68-12.75 2.75-4.32 0.05-8.72-0.57-11.5-1.61-2.48-0.94-6.19-3.52-8.25-5.75-2.06-2.24-4.2-5.75-4.75-7.81-0.54-2.07-0.99-5.1-0.99-6.75 0-1.65 0.49-4.8 1.1-7 0.66-2.41 2.75-5.61 5.24-8.06 2.44-2.37 6.21-4.74 9.15-5.73 2.75-0.93 10.17-2.14 16.5-2.69 6.32-0.55 12.85-1 14.5-1 2.99 0.01 3 0.01 2.18-4.25-0.46-2.35-1.24-5.06-1.75-6.02-0.51-0.97-2.39-2.65-4.18-3.75-2.34-1.43-5.01-2-9.5-2-4.12 0-7.53 0.64-10 1.87-2.06 1.04-4.31 3.06-5 4.5-0.69 1.45-1.25 3.3-1.25 4.13 0 1.2-1.54 1.5-15.5 1.53l0.75-4.01c0.41-2.21 1.36-5.26 2.12-6.77 0.75-1.52 2.89-4.29 4.75-6.17 1.86-1.88 5.4-4.31 7.88-5.39 2.47-1.08 6.52-2.33 9-2.77 2.47-0.44 7.65-0.6 11.5-0.35zm55 1.37l9.5 26.54c5.22 14.6 9.76 26.2 10.08 25.78 0.32-0.42 4.82-12.34 19.42-52.23l8.75-0.02c7.81-0.01 8.71 0.17 8.38 1.74-0.21 0.96-8.13 21.1-17.6 44.75-9.48 23.65-18.03 44.57-19.01 46.5-0.98 1.92-3.07 5.02-4.65 6.88-1.58 1.87-4.67 4.32-6.87 5.45-2.99 1.54-5.9 2.06-11.5 2.07-4.13 0-8.74-0.31-10.25-0.7-2.66-0.68-2.75-0.93-2.76-14.2l8.42-0.5c6.49-0.39 9.07-0.99 11.26-2.62 1.55-1.17 3.83-4.09 5.05-6.5 1.22-2.41 2.23-5.4 2.25-6.63 0.02-1.24-6.27-18.45-13.97-38.25-7.7-19.8-14-36.45-14-37 0-0.59 3.6-1.02 17.5-1.06zm-451.5 15.19c-1.38 0.55-3.85 2.01-5.5 3.26-1.65 1.24-4.01 4.36-5.25 6.93-1.67 3.46-2.24 6.44-2.22 11.43 0.02 5.03 0.61 7.89 2.32 11.25 1.32 2.57 4.13 5.78 6.57 7.5 3.36 2.36 5.58 3.08 10.42 3.38 4.58 0.28 7.16-0.11 10.06-1.5 2.15-1.04 5.41-3.57 7.25-5.63 1.84-2.07 3.8-5.44 4.34-7.5 0.55-2.07 1-5.55 1-7.75 0-2.2-0.45-5.69-1-7.75-0.54-2.07-2.5-5.44-4.34-7.5-1.84-2.07-4.99-4.54-7-5.5-2.13-1.02-5.84-1.73-8.9-1.69-2.89 0.04-6.38 0.51-7.75 1.07zm177 25.85c-2.48 0.41-5.85 1.43-7.5 2.26-1.65 0.83-3.58 2.13-4.28 2.89-0.71 0.75-1.29 3.17-1.29 5.37-0.01 2.2 0.68 5.01 1.53 6.25 0.86 1.26 3.4 2.73 5.79 3.34 2.34 0.6 6.05 0.83 8.25 0.51 2.2-0.31 5.55-1.59 7.44-2.84 1.89-1.24 4.23-3.61 5.19-5.26 0.96-1.65 2.11-5.37 2.56-8.27l0.81-5.26c-10.85 0.2-16.03 0.6-18.5 1.01zm213 0c-2.48 0.41-5.96 1.48-7.75 2.38-1.79 0.9-3.7 2.54-4.25 3.64-0.55 1.1-1 3.57-1 5.5 0 2.26 0.79 4.33 2.25 5.86 1.36 1.43 4.02 2.65 6.75 3.09 2.58 0.42 6.31 0.26 8.75-0.36 2.34-0.6 5.71-2.38 7.5-3.95 1.79-1.58 3.8-4.61 4.48-6.75 0.68-2.14 1.24-5.36 1.25-7.14l0.02-3.25c-10.46 0.18-15.53 0.57-18 0.98z"/>
	<path id="Relleno de color sólido 1" fill-rule="evenodd" class="s1" d="m321 6.67c5.23 0.26 12.65 1.08 16.5 1.81 3.85 0.74 10.83 2.75 15.5 4.47 4.67 1.72 11.2 4.64 14.5 6.49 3.3 1.85 8.7 5.35 12 7.77 3.3 2.42 8.44 6.85 11.43 9.85 2.98 2.99 7.63 8.36 10.33 11.94 2.69 3.58 7.13 11 9.84 16.5 2.72 5.5 6.13 14.5 7.58 20 2.31 8.77 2.63 11.91 2.62 25.5-0.02 13.52-0.36 16.78-2.67 25.5-1.48 5.61-5.01 14.83-8.05 21-3.32 6.74-8.06 14.27-12.25 19.47-3.75 4.65-9.98 11.1-13.83 14.32-3.85 3.22-10.83 8.06-15.5 10.76-4.67 2.7-13.23 6.46-19 8.36-5.77 1.9-13.99 3.93-18.25 4.52-4.26 0.59-11.01 1.07-15 1.07-3.99-0.01-11.3-0.67-16.25-1.47-4.95-0.81-12.15-2.54-16-3.85-3.85-1.31-9.48-3.55-12.5-4.97-3.02-1.42-9.1-4.94-13.5-7.81-4.4-2.87-11.39-8.64-15.54-12.81-4.14-4.18-10.05-11.42-13.13-16.09-3.08-4.67-7.06-11.87-8.85-16-1.78-4.12-4.28-11.55-5.54-16.5-1.26-4.95-2.6-13.05-2.98-18-0.4-5.27-0.21-12.94 0.46-18.5 0.63-5.23 2.09-12.87 3.25-17 1.15-4.12 3.64-10.87 5.54-15 1.89-4.12 5.82-11.1 8.72-15.5 2.9-4.4 8.15-10.88 11.67-14.4 3.52-3.51 8.88-8.3 11.9-10.63 3.02-2.34 8.88-6.07 13-8.3 4.12-2.23 10.65-5.18 14.5-6.55 3.85-1.37 10.6-3.19 15-4.03 4.4-0.85 9.58-1.74 11.5-1.97 1.92-0.23 7.77-0.21 13 0.05zm-16 58.95c-3.02 0.82-7.75 2.7-10.5 4.18-2.75 1.48-7.52 5.17-10.6 8.2-3.07 3.02-6.74 7.75-8.13 10.5-1.4 2.75-3.28 7.48-4.17 10.5-0.89 3.02-1.62 8.65-1.62 12.5-0.01 4.4 0.78 9.42 2.1 13.5 1.16 3.58 3.06 8.08 4.22 10 1.17 1.92 4.39 5.9 7.16 8.84 2.77 2.93 7.29 6.6 10.04 8.15 2.75 1.55 7.48 3.54 10.5 4.43 3.02 0.88 8.99 1.6 13.25 1.59 5.2-0.01 9.81-0.7 14-2.11 3.44-1.15 8.05-3.15 10.25-4.43 2.2-1.28 6.51-4.95 9.57-8.15 3.06-3.2 6.74-8.3 8.17-11.32 1.44-3.02 3.08-7.52 3.66-10 0.58-2.48 1.06-7.42 1.06-11 0.01-3.58-0.58-8.75-1.3-11.5-0.72-2.75-2.86-7.88-4.74-11.4-1.9-3.55-5.68-8.45-8.49-11-2.78-2.53-7.28-5.81-10-7.29-2.71-1.48-7.63-3.39-10.93-4.25-3.3-0.86-8.7-1.54-12-1.5-3.3 0.04-8.48 0.74-11.5 1.56zm10.92 35.38c1.7 0 4.43 0.67 6.08 1.5 1.65 0.83 3.45 2.4 4 3.5 0.55 1.1 1 3.58 1 5.5 0 2.27-0.88 4.56-2.5 6.5-2.1 2.52-3.22 3-7 3-3.67 0-5.06-0.56-7.5-3-2.4-2.4-2.98-3.82-2.92-7.08 0.05-3.06 0.78-4.8 2.92-7 1.93-1.98 3.84-2.92 5.92-2.92zm-268.67 274.52c4.26 0.26 10.11 1.36 13 2.44 2.89 1.08 7.21 3.67 9.6 5.75 2.39 2.09 5.42 6.04 6.72 8.79 1.3 2.75 2.72 6.92 3.93 13.54l-18-0.01-2.25-5.01c-1.72-3.84-3.19-5.49-6.25-7.02-2.77-1.38-6-2-10.5-2-4.13 0-7.84 0.64-10.16 1.75-2.01 0.96-4.71 2.99-6 4.5-1.79 2.11-2.35 3.98-2.37 8-0.03 3.75 0.54 6.03 2 8 1.11 1.51 3.38 3.42 5.03 4.25 1.65 0.83 8.85 2.85 16 4.5 7.15 1.65 14.91 3.89 17.25 4.99 2.34 1.09 5.83 3.26 7.75 4.83 1.93 1.56 4.6 5.05 5.95 7.76 2.02 4.06 2.45 6.41 2.45 13.42 0 6.97-0.44 9.4-2.44 13.5-1.34 2.75-4.24 6.72-6.45 8.83-2.2 2.1-6.37 4.91-9.26 6.25-2.89 1.33-8.74 2.92-13 3.54-5.58 0.81-9.71 0.83-14.75 0.06-3.85-0.59-9.14-1.99-11.75-3.12-2.61-1.13-7.03-4.2-9.81-6.81-3.43-3.22-5.68-6.44-7-10-1.07-2.89-1.94-6.37-1.94-7.75 0-2.48 0.07-2.5 18-2.5l0.5 2.75c0.27 1.51 1.96 4.15 3.75 5.87 1.79 1.71 4.83 3.63 6.75 4.26 1.93 0.64 5.98 1.14 9 1.13 3.02-0.01 7.19-0.47 9.25-1.02 2.06-0.54 5.1-2.11 6.75-3.49 1.68-1.4 3.43-4.16 3.98-6.25 0.64-2.45 0.64-5.05 0-7.5-0.55-2.09-2.3-4.85-3.98-6.25-1.65-1.37-4.69-2.9-6.75-3.39-2.06-0.49-8.7-2.06-14.75-3.51-6.05-1.44-13.02-3.62-15.5-4.85-2.48-1.22-6.05-3.81-7.94-5.74-1.88-1.93-4.33-5.53-5.42-8.01-1.44-3.24-2-6.74-2.03-12.5-0.02-5.92 0.49-9.17 1.98-12.5 1.11-2.48 3.9-6.41 6.21-8.75 2.31-2.34 6.11-5.21 8.45-6.38 2.34-1.17 6.95-2.74 10.25-3.48 3.63-0.82 9.06-1.16 13.75-0.87zm401.75-0.52h17v109h-17zm-91.74 0.74l25.12 0.49c22.99 0.45 25.63 0.68 31.12 2.76 4.17 1.57 7.55 3.83 11.06 7.39 3.42 3.46 5.81 7.07 7.35 11.12 1.94 5.11 2.22 7.41 1.88 15.5-0.28 6.68-1 10.83-2.42 14-1.11 2.48-3.56 6.24-5.44 8.38-1.89 2.13-5.45 5.04-7.93 6.46-2.48 1.42-6.98 3.16-10 3.86-3.02 0.7-11.69 1.28-33 1.3v37h-18zm17.74 54.26c24.29 0 27.74-0.35 30.67-1.75 2.02-0.97 4.83-3.29 6.25-5.17 2.29-3.04 2.58-4.36 2.58-11.68 0-6.75-0.38-8.77-2.06-11.08-1.13-1.55-4.06-3.84-6.5-5.08-3.95-2.01-5.9-2.26-17.69-2.25l-13.25 0.01zm-241-20.48c3.57 0.23 8.75 1.13 11.5 2 2.75 0.86 7.25 3.25 10 5.3 2.75 2.05 6.49 5.97 8.31 8.7 1.83 2.74 4.02 7.45 4.88 10.48 1.06 3.73 1.43 8.22 1.16 14-0.32 6.95-0.96 9.68-3.52 15-2.01 4.18-4.85 8.03-7.98 10.79-2.67 2.36-6.76 5.17-9.1 6.25-2.34 1.08-7.29 2.46-11 3.09-5.01 0.83-8.43 0.83-13.25 0-3.58-0.62-8.75-2.22-11.5-3.56-2.75-1.34-7.29-4.82-10.08-7.75-3.27-3.42-5.91-7.47-7.41-11.32-1.82-4.7-2.33-7.96-2.33-15 0-7.04 0.51-10.31 2.33-15 1.5-3.86 4.14-7.9 7.41-11.32 2.79-2.93 7.33-6.42 10.08-7.76 2.75-1.33 7.02-2.86 9.5-3.38 2.47-0.52 7.42-0.75 11-0.52zm95.5-0.01c3.38 0.29 8.29 1.59 11.25 3 3.36 1.59 6.15 3.84 7.75 6.24 1.37 2.06 3.18 6 4.01 8.75 1.19 3.91 1.51 10.59 1.49 56.5h-17l-0.01-21.75c0-12.57-0.46-23.44-1.09-25.75-0.6-2.2-2.06-5.07-3.25-6.38-1.18-1.31-3.61-3-5.4-3.75-1.79-0.76-4.71-1.36-6.5-1.35-1.79 0.01-5.16 0.91-7.5 2-2.64 1.23-5.3 3.56-9.75 10.32l-0.5 46.66h-17v-72h16l0.75 4.02c0.41 2.21 1.09 4.01 1.5 4 0.41-0.01 0.97-0.7 1.25-1.52 0.27-0.83 2.39-2.74 4.71-4.25 2.31-1.52 6.25-3.31 8.75-3.99 2.54-0.7 7.18-1.03 10.54-0.75zm77.5 0.1c4.24 0.29 9.45 1.38 12 2.5 2.47 1.1 6 3.43 7.84 5.19 1.83 1.76 4.31 5 5.5 7.2 2.04 3.79 2.17 5.46 2.66 59.5l-14.5 0.03-1.55-10.53-3.23 3.66c-1.77 2.01-5.47 4.68-8.22 5.93-3.79 1.71-6.94 2.28-13.03 2.33-6.74 0.07-8.82-0.33-13-2.48-2.8-1.45-6.2-4.28-7.78-6.5-2.14-2.99-2.96-5.52-3.39-10.44-0.33-3.71-0.1-8.01 0.53-10 0.61-1.93 2.8-5.21 4.89-7.3 2.08-2.08 6.14-4.67 9.03-5.75 2.95-1.1 10.18-2.39 16.5-2.94 6.19-0.55 12.49-1 14-1 2.51-0.01 2.75-0.34 2.74-3.76 0-2.07-0.9-5.22-2-7-1.3-2.13-3.29-3.64-5.74-4.38-2.06-0.62-6.45-0.95-9.75-0.73-4.07 0.27-7.05 1.12-9.25 2.63-1.97 1.35-3.57 3.5-4.87 8.73l-7.19 0.25c-6.87 0.24-7.19 0.15-7.18-2 0.01-1.24 0.58-3.99 1.25-6.12 0.68-2.12 2.59-5.43 4.24-7.35 1.65-1.92 5.25-4.57 8-5.89 2.75-1.32 7.02-2.82 9.5-3.34 2.47-0.52 7.87-0.72 12-0.44zm213.5-0.04c4.98 0.32 8.73 1.28 13 3.34 3.52 1.7 7.13 4.38 8.75 6.49 1.51 1.98 3.5 5.51 4.42 7.85 1.37 3.49 1.73 8.9 2.33 56.75h-16l-0.02-3.75c-0.01-2.07-0.34-4.32-0.75-5.01-0.52-0.88-1.39-0.37-2.98 1.75-1.24 1.65-4.84 4.21-8 5.68-4.41 2.04-7.39 2.68-12.75 2.75-4.32 0.05-8.72-0.57-11.5-1.61-2.48-0.94-6.19-3.52-8.25-5.75-2.06-2.24-4.2-5.75-4.75-7.81-0.54-2.07-0.99-5.1-0.99-6.75 0-1.65 0.49-4.8 1.1-7 0.66-2.41 2.75-5.61 5.24-8.06 2.44-2.37 6.21-4.74 9.15-5.73 2.75-0.93 10.17-2.14 16.5-2.69 6.32-0.55 12.85-1 14.5-1 2.99 0.01 3 0.01 2.18-4.25-0.46-2.35-1.24-5.06-1.75-6.02-0.51-0.97-2.39-2.65-4.18-3.75-2.34-1.43-5.01-2-9.5-2-4.12 0-7.53 0.64-10 1.87-2.06 1.04-4.31 3.06-5 4.5-0.69 1.45-1.25 3.3-1.25 4.13 0 1.2-1.54 1.5-15.5 1.53l0.75-4.01c0.41-2.21 1.36-5.26 2.12-6.77 0.75-1.52 2.89-4.29 4.75-6.17 1.86-1.88 5.4-4.31 7.88-5.39 2.47-1.08 6.52-2.33 9-2.77 2.47-0.44 7.65-0.6 11.5-0.35zm55 1.37l9.5 26.54c5.22 14.6 9.76 26.2 10.08 25.78 0.32-0.42 4.82-12.34 19.42-52.23l8.75-0.02c7.81-0.01 8.71 0.17 8.38 1.74-0.21 0.96-8.13 21.1-17.6 44.75-9.48 23.65-18.03 44.57-19.01 46.5-0.98 1.92-3.07 5.02-4.65 6.88-1.58 1.87-4.67 4.32-6.87 5.45-2.99 1.54-5.9 2.06-11.5 2.07-4.13 0-8.74-0.31-10.25-0.7-2.66-0.68-2.75-0.93-2.76-14.2l8.42-0.5c6.49-0.39 9.07-0.99 11.26-2.62 1.55-1.17 3.83-4.09 5.05-6.5 1.22-2.41 2.23-5.4 2.25-6.63 0.02-1.24-6.27-18.45-13.97-38.25-7.7-19.8-14-36.45-14-37 0-0.59 3.6-1.02 17.5-1.06zm-451.5 15.19c-1.38 0.55-3.85 2.01-5.5 3.26-1.65 1.24-4.01 4.36-5.25 6.93-1.67 3.46-2.24 6.44-2.22 11.43 0.02 5.03 0.61 7.89 2.32 11.25 1.32 2.57 4.13 5.78 6.57 7.5 3.36 2.36 5.58 3.08 10.42 3.38 4.58 0.28 7.16-0.11 10.06-1.5 2.15-1.04 5.41-3.57 7.25-5.63 1.84-2.07 3.8-5.44 4.34-7.5 0.55-2.07 1-5.55 1-7.75 0-2.2-0.45-5.69-1-7.75-0.54-2.07-2.5-5.44-4.34-7.5-1.84-2.07-4.99-4.54-7-5.5-2.13-1.02-5.84-1.73-8.9-1.69-2.89 0.04-6.38 0.51-7.75 1.07zm177 25.85c-2.48 0.41-5.85 1.43-7.5 2.26-1.65 0.83-3.58 2.13-4.28 2.89-0.71 0.75-1.29 3.17-1.29 5.37-0.01 2.2 0.68 5.01 1.53 6.25 0.86 1.26 3.4 2.73 5.79 3.34 2.34 0.6 6.05 0.83 8.25 0.51 2.2-0.31 5.55-1.59 7.44-2.84 1.89-1.24 4.23-3.61 5.19-5.26 0.96-1.65 2.11-5.37 2.56-8.27l0.81-5.26c-10.85 0.2-16.03 0.6-18.5 1.01zm213 0c-2.48 0.41-5.96 1.48-7.75 2.38-1.79 0.9-3.7 2.54-4.25 3.64-0.55 1.1-1 3.57-1 5.5 0 2.26 0.79 4.33 2.25 5.86 1.36 1.43 4.02 2.65 6.75 3.09 2.58 0.42 6.31 0.26 8.75-0.36 2.34-0.6 5.71-2.38 7.5-3.95 1.79-1.58 3.8-4.61 4.48-6.75 0.68-2.14 1.24-5.36 1.25-7.14l0.02-3.25c-10.46 0.18-15.53 0.57-18 0.98z"/>
</svg>